<svg id="Capa_1" enable-background="new 0 0 512 512" height="512" viewBox="0 0 512 512" width="512" xmlns="http://www.w3.org/2000/svg"><g><path d="m64 239.5c-8.284 0-15-6.716-15-15v-50c0-24.813 20.187-45 45-45h260c8.271 0 15-6.729 15-15v-83c0-8.284 6.716-15 15-15s15 6.716 15 15v83c0 24.813-20.187 45-45 45h-260c-8.271 0-15 6.729-15 15v50c0 8.284-6.716 15-15 15z" fill="#dad0cb"/><path d="m467 495.5h-422c-24.813 0-45-20.187-45-45v-196c0-24.813 20.187-45 45-45h422c24.813 0 45 20.187 45 45v196c0 24.813-20.187 45-45 45z" fill="#6c6c6c"/><path d="m467 209.5h-211v286h211c24.813 0 45-20.187 45-45v-196c0-24.813-20.187-45-45-45z" fill="#404040"/><g fill="#dad0cb"><path d="m432 401.5h-8c-8.284 0-15 6.716-15 15s6.716 15 15 15h8c8.284 0 15-6.716 15-15s-6.716-15-15-15z"/><path d="m313 352.5c0 8.284 6.716 15 15 15h8c8.284 0 15-6.716 15-15s-6.716-15-15-15h-8c-8.284 0-15 6.716-15 15z"/><path d="m288 303.5h24c8.284 0 15-6.716 15-15s-6.716-15-15-15h-24c-8.284 0-15 6.716-15 15s6.716 15 15 15z"/><path d="m408 303.5h24c8.284 0 15-6.716 15-15s-6.716-15-15-15h-24c-8.284 0-15 6.716-15 15s6.716 15 15 15z"/><path d="m432 337.5h-32c-8.284 0-15 6.716-15 15s6.716 15 15 15h32c8.284 0 15-6.716 15-15s-6.716-15-15-15z"/></g><path d="m233 352.5c0 8.284 6.716 15 15 15h16c8.284 0 15-6.716 15-15s-6.716-15-15-15h-16c-8.284 0-15 6.716-15 15z" fill="#f5f0eb"/><path d="m264 337.5h-8v30h8c8.284 0 15-6.716 15-15s-6.716-15-15-15z" fill="#dad0cb"/><path d="m239 288.5c0-8.284-6.716-15-15-15h-24c-8.284 0-15 6.716-15 15s6.716 15 15 15h24c8.284 0 15-6.716 15-15z" fill="#f5f0eb"/><path d="m184 337.5h-8c-8.284 0-15 6.716-15 15s6.716 15 15 15h8c8.284 0 15-6.716 15-15s-6.716-15-15-15z" fill="#f5f0eb"/><path d="m176 401.5h-16c-8.284 0-15 6.716-15 15s6.716 15 15 15h16c8.284 0 15-6.716 15-15s-6.716-15-15-15z" fill="#f5f0eb"/><path d="m96 401.5h-16c-8.284 0-15 6.716-15 15s6.716 15 15 15h16c8.284 0 15-6.716 15-15s-6.716-15-15-15z" fill="#f5f0eb"/><path d="m80 303.5h24c8.284 0 15-6.716 15-15s-6.716-15-15-15h-24c-8.284 0-15 6.716-15 15s6.716 15 15 15z" fill="#ff712f"/><path d="m112 337.5h-32c-8.284 0-15 6.716-15 15s6.716 15 15 15h32c8.284 0 15-6.716 15-15s-6.716-15-15-15z" fill="#f5f0eb"/><path d="m360 401.5h-120c-8.284 0-15 6.716-15 15s6.716 15 15 15h120c8.284 0 15-6.716 15-15s-6.716-15-15-15z" fill="#3aaaff"/><path d="m360 401.5h-104v30h104c8.284 0 15-6.716 15-15s-6.716-15-15-15z" fill="#0095ff"/></g></svg>