<?xml version="1.0" encoding="iso-8859-1"?>
<!-- Generator: Adobe Illustrator 19.0.0, SVG Export Plug-In . SVG Version: 6.00 Build 0)  -->
<svg version="1.1" id="Capa_1" xmlns="http://www.w3.org/2000/svg" xmlns:xlink="http://www.w3.org/1999/xlink" x="0px" y="0px"
	 viewBox="0 0 512 512" style="enable-background:new 0 0 512 512;" xml:space="preserve">
<path style="fill:#48709B;" d="M289.281,185.515v38.234c0,1.639-0.651,3.212-1.81,4.371l-15.033,15.033
	c-1.159,1.159-2.731,1.81-4.371,1.81h-99.229c-1.639,0-3.212-0.651-4.371-1.81l-15.033-15.033c-1.159-1.159-1.81-2.731-1.81-4.371
	v-38.234L289.281,185.515L289.281,185.515z"/>
<path style="fill:#304E75;" d="M289.281,185.515v22.398l-9.879,9.872c-2.328,2.327-5.485,3.634-8.777,3.634H166.28
	c-3.292,0-6.449-1.307-8.777-3.634l-9.879-9.872v-22.398H289.281z"/>
<path style="fill:#E94141;" d="M289.275,88.557v99.227c0,1.648-0.649,3.214-1.803,4.378l-15.03,15.03
	c-1.164,1.154-2.74,1.803-4.378,1.803h-99.227c-1.638,0-3.204-0.649-4.368-1.803l-15.03-15.03c-1.154-1.164-1.813-2.73-1.813-4.378
	V88.557c0-1.638,0.659-3.204,1.813-4.368l15.03-15.03c1.164-1.154,2.73-1.813,4.368-1.813h99.227c1.638,0,3.214,0.659,4.378,1.813
	l15.03,15.03C288.626,85.353,289.275,86.919,289.275,88.557z"/>
<path style="fill:#C62525;" d="M289.275,163.842v23.941c0,1.648-0.649,3.214-1.803,4.378l-15.03,15.03
	c-1.164,1.154-2.74,1.803-4.378,1.803h-99.227c-1.638,0-3.204-0.649-4.368-1.803l-15.03-15.03c-1.154-1.164-1.813-2.73-1.813-4.378
	v-23.941l18.657,18.646H270.63L289.275,163.842z"/>
<path style="fill:#48709B;" d="M173.674,385.207v38.234c0,1.639-0.651,3.212-1.81,4.371l-15.033,15.033
	c-1.159,1.159-2.731,1.81-4.371,1.81H53.24c-1.639,0-3.212-0.651-4.371-1.81l-15.033-15.033c-1.159-1.159-1.81-2.731-1.81-4.371
	v-38.234H173.674z"/>
<path style="fill:#304E75;" d="M173.674,385.207v22.398l-9.869,9.869c-2.329,2.329-5.487,3.637-8.78,3.637H50.675
	c-3.293,0-6.451-1.308-8.78-3.637l-9.869-9.869v-22.398H173.674z"/>
<path style="fill:#E94141;" d="M173.678,288.247v99.237c0,1.638-0.659,3.204-1.813,4.368l-15.03,15.03
	c-1.164,1.154-2.73,1.803-4.368,1.803H53.24c-1.638,0-3.214-0.649-4.378-1.803l-15.02-15.03c-1.164-1.164-1.813-2.73-1.813-4.368
	v-99.237c0-1.638,0.649-3.204,1.813-4.368l15.02-15.03c1.164-1.154,2.74-1.803,4.378-1.803h99.227c1.638,0,3.204,0.649,4.368,1.803
	l15.03,15.03C173.019,285.043,173.678,286.609,173.678,288.247z"/>
<path style="fill:#C62525;" d="M173.678,363.553v23.931c0,1.638-0.659,3.204-1.813,4.368l-15.03,15.03
	c-1.164,1.154-2.73,1.803-4.368,1.803H53.24c-1.638,0-3.214-0.649-4.378-1.803l-15.02-15.03c-1.164-1.164-1.813-2.73-1.813-4.368
	v-23.952l18.646,18.646h104.347l18.646-18.646L173.678,363.553z"/>
<path style="fill:#48709B;" d="M339.95,385.207v38.234c0,1.639-0.651,3.212-1.81,4.371l-15.033,15.033
	c-1.159,1.159-2.731,1.81-4.371,1.81h-99.229c-1.639,0-3.212-0.651-4.371-1.81l-15.033-15.033c-1.159-1.159-1.81-2.731-1.81-4.371
	v-38.234H339.95z"/>
<path style="fill:#304E75;" d="M339.955,385.207v22.398l-9.879,9.872c-2.328,2.327-5.485,3.634-8.777,3.634H216.953
	c-3.292,0-6.449-1.307-8.777-3.634l-9.879-9.872v-22.398H339.955z"/>
<path style="fill:#E94141;" d="M339.949,288.247v99.237c0,1.638-0.649,3.204-1.813,4.368l-15.03,15.03
	c-1.154,1.154-2.73,1.803-4.368,1.803h-99.227c-1.638,0-3.214-0.649-4.368-1.803l-15.03-15.03c-1.164-1.164-1.813-2.73-1.813-4.368
	v-99.237c0-1.638,0.649-3.204,1.813-4.368l15.03-15.03c1.154-1.154,2.73-1.803,4.368-1.803h99.227c1.638,0,3.214,0.649,4.368,1.803
	l15.03,15.03C339.3,285.043,339.949,286.609,339.949,288.247z"/>
<path style="fill:#C62525;" d="M339.949,363.533v23.952c0,1.638-0.649,3.204-1.813,4.368l-15.03,15.03
	c-1.154,1.154-2.73,1.803-4.368,1.803h-99.227c-1.638,0-3.214-0.649-4.368-1.803l-15.03-15.03c-1.164-1.164-1.813-2.73-1.813-4.368
	v-23.952l18.646,18.646h104.357L339.949,363.533z"/>
<path style="fill:#48709B;" d="M506.732,385.207v38.234c0,1.639-0.651,3.212-1.81,4.371l-15.033,15.033
	c-1.159,1.159-2.731,1.81-4.371,1.81h-99.219c-1.639,0-3.212-0.651-4.371-1.81l-15.033-15.033c-1.159-1.159-1.81-2.731-1.81-4.371
	v-38.234H506.732z"/>
<path style="fill:#304E75;" d="M506.732,385.207v22.398l-9.869,9.869c-2.329,2.329-5.487,3.637-8.78,3.637h-104.35
	c-3.293,0-6.451-1.308-8.78-3.637l-9.869-9.869v-22.398H506.732z"/>
<path style="fill:#E94141;" d="M506.736,288.247v99.237c0,1.638-0.659,3.204-1.813,4.368l-15.03,15.03
	c-1.164,1.154-2.73,1.803-4.368,1.803h-99.227c-1.638,0-3.214-0.649-4.378-1.803l-15.03-15.03c-1.154-1.164-1.803-2.73-1.803-4.368
	v-99.237c0-1.638,0.649-3.204,1.803-4.368l15.03-15.03c1.164-1.154,2.74-1.803,4.378-1.803h99.227c1.638,0,3.204,0.649,4.368,1.803
	l15.03,15.03C506.076,285.043,506.736,286.609,506.736,288.247z"/>
<path style="fill:#C62525;" d="M506.736,363.533v23.952c0,1.638-0.659,3.204-1.813,4.368l-15.03,15.03
	c-1.164,1.154-2.73,1.803-4.368,1.803h-99.227c-1.638,0-3.214-0.649-4.378-1.803l-15.03-15.03c-1.154-1.164-1.803-2.73-1.803-4.368
	v-23.952l18.646,18.646H488.09L506.736,363.533z"/>
<g>
	<path style="fill:#E4EAF6;" d="M234.206,176.396c-3.497,0-6.558-2.349-7.463-5.727l-8.037-29.999l-8.037,29.999
		c-0.905,3.378-3.966,5.727-7.463,5.727s-6.558-2.349-7.463-5.727l-15.5-57.858c-1.104-4.122,1.342-8.359,5.464-9.463
		c4.123-1.103,8.358,1.342,9.463,5.464l8.037,29.999l8.037-29.999c0.905-3.378,3.966-5.727,7.463-5.727s6.558,2.349,7.463,5.727
		l8.037,29.999l8.037-29.999c1.105-4.122,5.344-6.566,9.463-5.464c4.122,1.104,6.568,5.341,5.464,9.463l-15.5,57.858
		C240.764,174.047,237.703,176.396,234.206,176.396z"/>
	<path style="fill:#E4EAF6;" d="M125.814,363.737l-15.5-57.858c-0.905-3.378-3.966-5.727-7.463-5.727
		c-3.497,0-6.558,2.349-7.463,5.727l-15.5,57.858c-1.104,4.122,1.342,8.359,5.464,9.463c4.124,1.104,8.358-1.342,9.463-5.464
		l2.49-9.293h11.094l2.49,9.293c0.925,3.452,4.047,5.729,7.458,5.729c0.662,0,1.335-0.086,2.005-0.265
		C124.472,372.096,126.918,367.859,125.814,363.737z M101.443,342.99l1.407-5.254l1.407,5.254H101.443z"/>
	<path style="fill:#E4EAF6;" d="M438.129,373.463h-14.513c-4.267,0-7.726-3.459-7.726-7.726v-57.858
		c0-4.267,3.459-7.726,7.726-7.726h14.513c9.813,0,17.797,7.983,17.797,17.797v37.717
		C455.926,365.48,447.942,373.463,438.129,373.463z M431.342,358.01h6.787c1.293,0,2.345-1.051,2.345-2.344V317.95
		c0-1.293-1.052-2.344-2.345-2.344h-6.787V358.01z"/>
	<path style="fill:#E4EAF6;" d="M277.852,373.463h-17.451c-6.798,0-12.329-5.531-12.329-12.329v-2.753
		c0-4.267,3.459-7.726,7.726-7.726c4.143,0,7.524,3.261,7.718,7.356h11.213v-13.476h-14.328c-6.798,0-12.329-5.531-12.329-12.329
		v-19.723c0-6.798,5.531-12.329,12.329-12.329h17.451c6.798,0,12.329,5.531,12.329,12.329v2.753c0,4.267-3.459,7.726-7.726,7.726
		c-4.143,0-7.524-3.261-7.718-7.356h-11.213v13.476h14.328c6.798,0,12.329,5.531,12.329,12.329v19.723
		C290.182,367.932,284.65,373.463,277.852,373.463z"/>
</g>
<g>
	<path style="fill:#C62525;" d="M145.991,299.921c-4.267,0-7.726-3.459-7.726-7.726v-0.888c0-4.267,3.459-7.726,7.726-7.726
		s7.726,3.459,7.726,7.726v0.888C153.717,296.462,150.258,299.921,145.991,299.921z"/>
	<path style="fill:#C62525;" d="M313.628,299.921c-4.267,0-7.726-3.459-7.726-7.726v-0.888c0-4.267,3.459-7.726,7.726-7.726
		s7.726,3.459,7.726,7.726v0.888C321.355,296.462,317.895,299.921,313.628,299.921z"/>
	<path style="fill:#C62525;" d="M481.265,299.921c-4.267,0-7.726-3.459-7.726-7.726v-0.888c0-4.267,3.459-7.726,7.726-7.726
		s7.726,3.459,7.726,7.726v0.888C488.991,296.462,485.532,299.921,481.265,299.921z"/>
</g>
<path style="fill:#48709B;" d="M123.003,185.515v38.234c0,1.639-0.651,3.212-1.81,4.371l-15.033,15.033
	c-1.159,1.159-2.731,1.81-4.371,1.81H6.191c-3.414,0-6.181-2.767-6.181-6.181v-17.363L0,185.515H123.003z"/>
<path style="fill:#304E75;" d="M123.003,185.515v22.398l-9.876,9.867c-2.321,2.331-5.483,3.639-8.778,3.639H0.01L0,185.515H123.003z
	"/>
<path style="fill:#E4EAF6;" d="M123.004,88.557v99.227c0,1.648-0.649,3.214-1.813,4.378l-15.03,15.03
	c-1.154,1.154-2.73,1.803-4.368,1.803H0V73.526c0-3.41,2.771-6.181,6.181-6.181h95.611c1.638,0,3.214,0.659,4.368,1.813l15.03,15.03
	C122.355,85.353,123.004,86.919,123.004,88.557z"/>
<path style="fill:#C7CFE2;" d="M123.004,163.842v23.941c0,1.648-0.649,3.214-1.813,4.378l-15.03,15.03
	c-1.154,1.154-2.73,1.803-4.368,1.803H0v-26.507h104.347L123.004,163.842z"/>
<path style="fill:#48709B;" d="M456.059,185.515v38.234c0,1.639-0.651,3.212-1.81,4.371l-15.033,15.033
	c-1.159,1.159-2.731,1.81-4.371,1.81h-99.219c-1.639,0-3.212-0.651-4.371-1.81l-15.033-15.033c-1.159-1.159-1.81-2.731-1.81-4.371
	v-38.234L456.059,185.515L456.059,185.515z"/>
<path style="fill:#304E75;" d="M456.059,185.515v22.398l-9.869,9.869c-2.329,2.329-5.487,3.637-8.78,3.637H333.06
	c-3.293,0-6.451-1.308-8.78-3.637l-9.869-9.869v-22.398H456.059z"/>
<path style="fill:#E4EAF6;" d="M456.061,88.557v99.227c0,1.648-0.649,3.214-1.813,4.378l-15.03,15.03
	c-1.154,1.154-2.73,1.803-4.368,1.803h-99.227c-1.638,0-3.214-0.649-4.368-1.803l-15.03-15.03c-1.164-1.164-1.813-2.73-1.813-4.378
	V88.557c0-1.638,0.649-3.204,1.813-4.368l15.03-15.03c1.154-1.154,2.73-1.813,4.368-1.813h99.227c1.638,0,3.214,0.659,4.368,1.813
	l15.03,15.03C455.412,85.353,456.061,86.919,456.061,88.557z"/>
<path style="fill:#C7CFE2;" d="M456.061,163.842v23.941c0,1.648-0.649,3.214-1.813,4.378l-15.03,15.03
	c-1.154,1.154-2.73,1.803-4.368,1.803h-99.227c-1.638,0-3.214-0.649-4.368-1.803l-15.03-15.03c-1.164-1.164-1.813-2.73-1.813-4.378
	v-23.941l18.646,18.646h104.357L456.061,163.842z"/>
<path style="fill:#48709B;" d="M512,185.515h-31.551v38.234c0,1.639,0.651,3.212,1.81,4.371l15.033,15.033
	c1.159,1.159,2.731,1.81,4.371,1.81h4.155c3.414,0,6.181-2.767,6.181-6.181v-53.267H512z"/>
<path style="fill:#304E75;" d="M512,185.515h-31.551v22.398l9.869,9.869c2.329,2.329,5.487,3.637,8.78,3.637H512V185.515z"/>
<path style="fill:#E4EAF6;" d="M512,73.526v135.469h-10.343c-1.638,0-3.214-0.649-4.368-1.803l-15.03-15.03
	c-1.164-1.164-1.813-2.73-1.813-4.378V88.557c0-1.638,0.649-3.204,1.813-4.368l15.03-15.03c1.154-1.154,2.73-1.813,4.368-1.813
	h4.162C509.229,67.345,512,70.117,512,73.526z"/>
<g>
	<path style="fill:#C7CFE2;" d="M512,182.489v26.507h-10.343c-1.638,0-3.214-0.649-4.368-1.803l-15.03-15.03
		c-1.164-1.164-1.813-2.73-1.813-4.378v-23.941l18.657,18.646H512V182.489z"/>
	<path style="fill:#C7CFE2;" d="M95.318,100.23c-4.267,0-7.726-3.459-7.726-7.726v-0.888c0-4.267,3.459-7.726,7.726-7.726
		s7.726,3.459,7.726,7.726v0.888C103.044,96.771,99.585,100.23,95.318,100.23z"/>
</g>
<path style="fill:#C62525;" d="M262.955,100.23c-4.267,0-7.726-3.459-7.726-7.726v-0.888c0-4.267,3.459-7.726,7.726-7.726
	s7.726,3.459,7.726,7.726v0.888C270.682,96.771,267.222,100.23,262.955,100.23z"/>
<path style="fill:#C7CFE2;" d="M430.592,100.23c-4.267,0-7.726-3.459-7.726-7.726v-0.888c0-4.267,3.459-7.726,7.726-7.726
	s7.726,3.459,7.726,7.726v0.888C438.318,96.771,434.859,100.23,430.592,100.23z"/>
<g>
</g>
<g>
</g>
<g>
</g>
<g>
</g>
<g>
</g>
<g>
</g>
<g>
</g>
<g>
</g>
<g>
</g>
<g>
</g>
<g>
</g>
<g>
</g>
<g>
</g>
<g>
</g>
<g>
</g>
</svg>
