<svg height="512" viewBox="0 0 58 47" width="512" xmlns="http://www.w3.org/2000/svg"><g id="Page-1" fill="none" fill-rule="evenodd"><g id="021---Lips" fill-rule="nonzero"><path id="Shape" d="m58 27c-.0135207.1634958-.0471064.3247069-.1.48-.23.83-1.06 2.88-3.9 7.02-4 5.83-9 12.5-15 12.5s-7-3-10-3-4 3-10 3-11-6.67-15-12.5c-2.84-4.14-3.67-6.19-3.9-7.02-.05289364-.1552931-.08647929-.3165042-.1-.48.52102453-4.2160464 1.98750628-8.2599809 4.29-11.83 1.99337868-3.287843 4.3553146-6.33755851 7.04-9.09 2.34-2.41 6.01-6.75 9.78-5.99 2.8.56 4.89 3.18 7.89 3.18s5.09-2.62 7.89-3.18c3.77-.76 7.44 3.58 9.78 5.99 2.6846854 2.75244149 5.0466213 5.802157 7.04 9.09 2.3024937 3.5700191 3.7689755 7.6139536 4.29 11.83z" fill="#e64c3c"/><path id="Shape" d="m57.9 27.48c-.23.83-1.06 2.88-3.9 7.02-4 5.83-9 12.5-15 12.5s-7-3-10-3-4 3-10 3-11-6.67-15-12.5c-2.84-4.14-3.67-6.19-3.9-7.02 2.4-.29 10.61-1.48 14.9-1.48 17 0 14 1 14 1s-3-1 14-1c4.29 0 12.5 1.19 14.9 1.48z" fill="#c03a2b"/><path id="Shape" d="m13 11.376c-.3874977-.0000141-.7401065-.2238924-.9049576-.5745755-.164851-.3506831-.1122659-.7650372.1349576-1.0634245.338-.40733333.6823333-.80233333 1.033-1.185.3774663-.38443535.9916402-.40072333 1.3889522-.03683519.3973119.36388813.4349188.97712598.0850478 1.38683519-.328.3593333-.6503333.73-.967 1.112-.1901641.2289134-.4724035.361236-.77.361z" fill="#ecf0f1"/><path id="Shape" d="m17.039 7.354c-.4231305-.00030998-.8002671-.26689739-.9417275-.66568111-.1414605-.39878372-.016622-.84343663.3117275-1.11031889.9869104-.80304111 2.0339837-1.52917242 3.132-2.172.3089396-.18817459.6954191-.19483496 1.0106592-.01741712.31524.17741784.5100889.51125112.5095374.87298732-.0005514.3617362-.1964171.69497388-.5121966.8714298-1.0097482.59250761-1.9728706 1.26111047-2.881 2-.1778104.14417219-.4000884.22226986-.629.221z" fill="#ecf0f1"/><path id="Shape" d="m39 45c-1.5420142-.0605767-3.0554947-.4348637-4.448-1.1-.4942949-.2465951-.6950951-.8472051-.4485-1.3415s.8472051-.6950951 1.3415-.4485c1.1150547.5272469 2.3230517.8296709 3.555.89 1.7209389.0308993 3.3102608-.9176546 4.1-2.447.158024-.3224865.4768371-.5354742.8352525-.5580026.3584153-.0225283.7013887.1488625.8985495.4490237.1971608.3001611.2182297.6829949.055198 1.0029789-1.1262915 2.2090896-3.4095896 3.5866679-5.889 3.553z" fill="#e64c3c"/><path id="Shape" d="m46.22 22.37h-.01c-2.0470608.3948373-4.1253507.6056783-6.21.63-1.0020527-.0029094-2.0033223-.0563105-3-.16-2.95-.28-5.76-.84-8-.84s-5.05.56-8 .84c-.9966777.1036895-1.9979473.1570906-3 .16-2.0846493-.0243217-4.1629392-.2351627-6.21-.63h-.01c.4477807-.5465472.8555078-1.1247176 1.22-1.73 2.8640702-1.7719397 5.5440335-3.8254616 8-6.13 0 0 5 .53 8 .53s8-.53 8-.53c2.4559665 2.3045384 5.1359298 4.3580603 8 6.13.3644922.6052824.7722193 1.1834528 1.22 1.73z" fill="#fff"/><path id="Shape" d="m53.96 27c-2.91.04-9.62 4-24.96 4s-22.05-3.96-24.96-4c3.06918862-.5184812 5.83163958-2.1709551 7.74-4.63h.01c2.0470608.3948373 4.1253507.6056783 6.21.63 1.0020527-.0029094 2.0033223-.0563105 3-.16 2.95-.28 5.76-.84 8-.84s5.05.56 8 .84c.9966777.1036895 1.9979473.1570906 3 .16 2.0846493-.0243217 4.1629392-.2351627 6.21-.63h.01c1.9083604 2.4590449 4.6708114 4.1115188 7.74 4.63z" fill="#802f34"/><path id="Shape" d="m46.22 22.37h-.01c-2.0470608.3948373-4.1253507.6056783-6.21.63-1.0020527-.0029094-2.0033223-.0563105-3-.16v-8.33c2.4559665 2.3045384 5.1359298 4.3580603 8 6.13.3644922.6052824.7722193 1.1834528 1.22 1.73z" fill="#fff"/><path id="Shape" d="m37 14.51v8.33c-2.95-.28-5.76-.84-8-.84v-6.96c3 0 8-.53 8-.53z" fill="#ecf0f1"/><path id="Shape" d="m29 15.04v6.96c-2.24 0-5.05.56-8 .84v-8.33s5 .53 8 .53z" fill="#fff"/><path id="Shape" d="m21 14.51v8.33c-.9966777.1036895-1.9979473.1570906-3 .16-2.0846493-.0243217-4.1629392-.2351627-6.21-.63h-.01c.4477807-.5465472.8555078-1.1247176 1.22-1.73 2.8640702-1.7719397 5.5440335-3.8254616 8-6.13z" fill="#ecf0f1"/></g></g></svg>