<svg width="201" height="81" viewBox="0 0 201 81" fill="none" xmlns="http://www.w3.org/2000/svg">
<path fill-rule="evenodd" clip-rule="evenodd" d="M19.149 15.6745C16.2934 16.3432 11.5037 19.7154 15.1896 27.8545C15.8375 28.7142 17.9396 30.6057 21.1647 31.2935C22.5805 31.2696 25.844 30.0612 27.5717 25.4185C27.2358 23.7945 26.3623 20.5465 25.556 20.5465C25.2921 19.7106 24.5914 17.8526 23.9003 17.1074C23.1804 16.5509 21.2223 15.4853 19.149 15.6745ZM16.9893 24.5587C16.1831 21.9221 18.6451 19.9017 18.6451 19.9017C20.776 18.3541 23.0364 19.6867 23.9003 20.5465C25.1673 22.0368 24.4282 24.4154 23.9003 25.4185C22.5757 28.8002 19.4129 27.6395 17.9972 26.6364C17.9972 25.662 17.3253 24.8453 16.9893 24.5587Z" fill="#FDFDFD"/>
<path d="M20.445 20.5465C19.1731 20.857 17.1335 22.18 19.1492 24.9886C19.0532 25.3707 19.0196 26.1206 19.6531 26.0633C20.8529 26.7081 23.2238 26.9087 23.1086 22.5526C23.0366 21.669 22.4031 20.0306 20.445 20.5465Z" fill="#FDFDFD"/>
<path fill-rule="evenodd" clip-rule="evenodd" d="M11.9501 16.176C10.9183 18.397 8.92657 23.269 9.21455 24.9885C8.97458 25.9438 9.51687 29.0581 13.6059 33.8727C15.4296 35.3534 20.4736 37.6986 26.06 35.234C27.6437 34.5414 31.0992 31.1358 32.2511 23.0541C32.371 22.4331 32.3231 20.6897 31.1712 18.6836C30.2594 16.9402 28.0901 13.2098 26.7079 12.2354C25.4841 11.4712 21.9278 10.2436 17.4933 11.4473C16.4374 11.5667 13.8507 12.6796 11.9501 16.176ZM13.6059 28.0694C10.496 21.0429 14.5657 16.8784 16.9894 15.6745C20.5024 13.9549 23.4924 15.2923 24.5482 16.176C25.8152 16.5772 26.7559 18.6358 27.0678 19.615C29.2995 24.4154 29.3955 24.6303 29.2995 25.4184C26.9383 30.8063 22.4126 32.1532 20.4449 32.1532C15.9527 31.58 14.0138 29.1918 13.6059 28.0694Z" fill="#FDFDFD"/>
<path fill-rule="evenodd" clip-rule="evenodd" d="M7.63092 11.4473C6.91104 13.3579 5.45688 17.7235 5.39928 19.9016C4.60737 22.1465 4.17547 25.4184 4.60737 26.6364C5.03932 27.8544 4.43463 29.6742 9.2147 35.234C10.0066 36.8819 11.7919 40.364 12.5982 41.1091C13.606 42.0406 18.7173 41.0374 19.1492 41.6105C19.5811 42.1837 28.0039 42.7568 28.1478 42.1837C28.2918 41.6105 38.8741 40.1059 37.0025 23.8422C37.0745 20.5942 36.513 13.568 33.691 11.4473C32.0593 9.72776 26.6361 6.11678 17.9974 5.42896C16.5336 5.57224 12.411 6.97651 7.63092 11.4473ZM7.63092 27.1379C7.28539 22.4379 9.50264 17.8716 10.6545 16.176C14.9162 8.38081 24.0925 9.77551 28.1478 11.4473C31.4881 15.8607 33.619 20.2121 34.2669 21.8361C33.3455 26.3641 30.8594 31.7472 29.7316 33.8727C24.8939 38.5155 18.2613 37.3834 15.5497 36.237C12.267 36.237 8.90276 30.1709 7.63092 27.1379Z" fill="#FDFDFD"/>
<path d="M5.3992 12.9519C4.36733 13.6923 2.17407 15.2733 1.65575 15.6745C1.13743 16.0757 -8.78767e-06 19.83 0 21.1913C8.78779e-06 22.5526 0.345548 23.7276 0.287957 23.8422C0.215968 23.9855 0 26.0633 0 26.6364C0 27.2096 2.95155 36.3088 5.32722 39.8911C5.63916 40.8704 6.85336 42.6996 9.21462 42.1838H11.9502C11.2783 41.6823 9.86252 40.3641 9.57454 39.1031C9.2866 38.5061 8.58111 37.0969 8.06279 36.2371C7.36687 35.2818 5.70153 32.9557 4.60729 31.2935C4.1034 30.4098 3.10993 28.6139 3.16752 28.4993C3.02354 28.141 2.72119 27.2669 2.6636 26.6364C2.49562 25.92 2.26046 24.2005 2.6636 23.0541L3.59946 20.5465L5.3992 12.9519Z" fill="#FDFDFD"/>
<path d="M0.21582 32.1533V39.1032C0.527773 40.3926 1.84277 42.7858 4.60714 42.0407L0.21582 32.1533Z" fill="#FDFDFD"/>
<path d="M37.0024 13.6683C37.8663 18.803 39.3347 29.6886 38.2981 32.1532C37.0024 35.234 37.4343 38.4582 30.6674 42.0406L34.2668 42.1837C36.3545 40.703 40.6595 37.3547 41.1779 35.8072V18.1821C41.121 17.6328 40.2061 15.961 37.0024 13.6683Z" fill="#FDFDFD"/>
<path d="M41.1779 38.1716L36.5706 42.0406C37.3384 42.1359 39.0615 42.0835 39.81 41.1091C40.7459 39.8911 41.1779 40.536 41.1779 38.1716Z" fill="#FDFDFD"/>
<path d="M16.1975 4.78423C18.1412 4.47378 23.2524 4.44034 28.1477 6.79035L22.5326 2.70648C21.6927 2.25271 19.2498 2.03299 16.1975 4.78423Z" fill="#FDFDFD"/>
<path d="M59.0988 42.4213C58.287 42.5751 57.3107 42.6517 56.1698 42.6517C55.0874 42.6517 54.1111 42.5751 53.2412 42.4213V0.3749L53.6183 0H55.8801C57.1366 0 57.9874 0.30761 58.432 0.922828C58.8763 1.51882 59.0988 2.4801 59.0988 3.80665V17.2453C60.3553 16.1495 61.7668 15.2459 63.3324 14.5345C64.9179 13.8232 66.5706 13.4675 68.2912 13.4675C70.0893 13.4675 71.5488 13.8905 72.6702 14.7364C73.8107 15.5631 74.642 16.6974 75.1641 18.1393C75.7053 19.562 75.976 21.1577 75.976 22.9265V36.3363C75.976 37.3361 76.0435 38.2878 76.179 39.1912C76.3141 40.0756 76.5656 40.8545 76.9328 41.5271C76.4882 41.8926 75.9275 42.1906 75.2511 42.4213C74.5935 42.6711 73.8977 42.796 73.163 42.796C72.003 42.796 71.1817 42.479 70.6981 41.8444C70.2343 41.2101 70.0023 40.268 70.0023 39.0185V24.3684C70.0023 22.4459 69.7508 21.052 69.2485 20.1868C68.7458 19.3025 67.7885 18.8603 66.3775 18.8603C65.237 18.8603 63.9996 19.1775 62.6656 19.812C61.3317 20.4272 60.1427 21.2923 59.0988 22.4074V42.4213Z" fill="#FDFDFD"/>
<path d="M84.5276 20.0427C84.5276 19.043 84.4596 18.1009 84.3245 17.2165C84.189 16.3129 83.9379 15.5247 83.5703 14.8518C84.015 14.4673 84.5757 14.1597 85.2524 13.929C85.9291 13.679 86.6249 13.5541 87.3402 13.5541C88.5196 13.5541 89.3413 13.8809 89.8051 14.5346C90.2883 15.169 90.5302 16.1111 90.5302 17.3607V32.0395C90.5302 33.962 90.7718 35.3655 91.2551 36.2498C91.7577 37.1342 92.7146 37.5764 94.126 37.5764C95.2665 37.5764 96.5039 37.2592 97.8375 36.6247C99.1715 35.9903 100.36 35.1155 101.405 34.0005V13.9578C102.217 13.804 103.202 13.7271 104.362 13.7271C105.542 13.7271 106.547 13.804 107.378 13.9578V34.3465C107.378 35.4616 107.494 36.519 107.726 37.5188C107.958 38.4993 108.383 39.2683 109.002 39.8259C108.847 40.3641 108.557 40.9312 108.132 41.5271C107.707 42.1041 107.252 42.5463 106.769 42.8537C105.493 42.604 104.459 42.1041 103.667 41.3544C102.893 40.6044 102.313 39.701 101.926 38.6435C100.67 39.8737 99.2005 40.9023 97.5188 41.729C95.8367 42.5368 94.068 42.9403 92.2119 42.9403C90.4142 42.9403 88.9447 42.5269 87.8043 41.7002C86.6829 40.8545 85.8516 39.72 85.3104 38.2973C84.7883 36.8554 84.5276 35.2501 84.5276 33.4814V20.0427Z" fill="#FDFDFD"/>
<path d="M137.355 39.9124C135.963 40.8928 134.31 41.6812 132.397 42.2771C130.483 42.8731 128.52 43.171 126.51 43.171C124.209 43.171 122.286 42.7672 120.739 41.9598C119.192 41.1331 117.965 40.0278 117.057 38.6435C116.148 37.2399 115.5 35.6442 115.113 33.8562C114.727 32.0491 114.534 30.1745 114.534 28.2328C114.534 25.3682 114.978 22.8015 115.868 20.533C116.776 18.2643 118.12 16.4764 119.898 15.169C121.696 13.8617 123.939 13.208 126.626 13.208C129.139 13.208 131.246 13.7559 132.947 14.8518C134.668 15.9476 135.963 17.428 136.833 19.2929C137.703 21.1386 138.138 23.2053 138.138 25.4931C138.138 26.4159 138.1 27.2138 138.022 27.8867C137.964 28.5404 137.858 29.2613 137.703 30.0496H120.739C120.855 32.4528 121.387 34.433 122.334 35.9903C123.281 37.5476 124.973 38.3262 127.409 38.3262C128.859 38.3262 130.26 38.1147 131.613 37.6917C132.967 37.2688 134.262 36.7497 135.499 36.1345C135.983 36.5959 136.389 37.1919 136.717 37.9223C137.065 38.653 137.278 39.3165 137.355 39.9124ZM126.626 17.5914C124.77 17.5914 123.349 18.3124 122.363 19.7543C121.397 21.1962 120.855 23.1957 120.739 25.7527H132.397V25.0029C132.397 22.9842 131.952 21.2443 131.063 19.7831C130.173 18.322 128.694 17.5914 126.626 17.5914Z" fill="#FDFDFD"/>
<path d="M155.768 37.9511C156.097 38.8355 156.261 39.8353 156.261 40.9505C156.261 41.1813 156.251 41.412 156.232 41.6424C156.213 41.8539 156.184 42.0558 156.145 42.2482C155.468 42.3443 154.666 42.4403 153.738 42.5367C152.829 42.6328 151.979 42.6806 151.186 42.6806C147.378 42.6806 145.473 40.7004 145.473 36.74V0.3749L145.85 0H148.112C149.369 0 150.22 0.30761 150.664 0.922828C151.109 1.51882 151.331 2.4801 151.331 3.80665V35.4135C151.331 37.1053 152.095 37.9511 153.622 37.9511H155.768Z" fill="#FDFDFD"/>
<path d="M172.193 37.9511C172.521 38.8355 172.686 39.8353 172.686 40.9505C172.686 41.1813 172.676 41.412 172.657 41.6424C172.637 41.8539 172.608 42.0558 172.57 42.2482C171.893 42.3443 171.091 42.4403 170.163 42.5367C169.254 42.6328 168.404 42.6806 167.611 42.6806C163.803 42.6806 161.899 40.7004 161.899 36.74V0.3749L162.275 0H164.537C165.794 0 166.644 0.30761 167.089 0.922828C167.534 1.51882 167.756 2.4801 167.756 3.80665V35.4135C167.756 37.1053 168.52 37.9511 170.047 37.9511H172.193Z" fill="#FDFDFD"/>
<path d="M175.786 34.6638C175.786 32.472 176.269 30.6744 177.236 29.271C178.222 27.8675 179.547 26.8293 181.209 26.1564C182.891 25.4643 184.776 25.1182 186.864 25.1182C187.676 25.1182 188.565 25.1471 189.532 25.2048C190.518 25.2432 191.494 25.3297 192.46 25.4643V23.2438C192.46 21.4365 192.045 20.1388 191.213 19.3506C190.382 18.5623 189.222 18.1682 187.734 18.1682C186.265 18.1682 184.747 18.3893 183.181 18.8315C181.634 19.2544 180.107 19.7639 178.599 20.3599C178.116 19.8793 177.71 19.2256 177.381 18.3989C177.053 17.553 176.869 16.7455 176.83 15.9765C178.474 15.2843 180.397 14.6691 182.601 14.1308C184.824 13.5925 186.922 13.3234 188.894 13.3234C191.736 13.3234 194.026 14.1116 195.766 15.6881C197.506 17.2646 198.376 19.7063 198.376 23.013V34.8368C198.376 35.9134 198.473 36.8651 198.666 37.6917C198.879 38.4993 199.323 39.1912 200 39.7682C199.826 40.3064 199.526 40.8833 199.101 41.4983C198.676 42.0946 198.221 42.5462 197.738 42.8537C196.54 42.6233 195.563 42.1811 194.809 41.5271C194.075 40.8735 193.514 40.1045 193.127 39.2201C192.084 40.2199 190.827 41.1331 189.358 41.9598C187.888 42.7672 186.206 43.171 184.312 43.171C182.398 43.171 180.803 42.7482 179.527 41.9021C178.271 41.056 177.333 39.9796 176.714 38.6723C176.096 37.3649 175.786 36.0288 175.786 34.6638ZM181.731 34.26C181.731 35.4328 182.069 36.4325 182.746 37.2592C183.423 38.0665 184.389 38.4704 185.646 38.4704C186.728 38.4704 187.879 38.1724 189.097 37.5764C190.315 36.9804 191.436 36.1057 192.46 34.9521V29.5017C191.59 29.4055 190.701 29.3382 189.792 29.2998C188.903 29.2613 188.053 29.2421 187.241 29.2421C185.481 29.2421 184.119 29.6843 183.152 30.5687C182.205 31.4531 181.731 32.6835 181.731 34.26Z" fill="#FDFDFD"/>
<path d="M8.028 68.287C8.04 67.813 7.98 67.354 7.848 66.91C7.722 66.466 7.494 66.1 7.164 65.812C6.84 65.524 6.384 65.38 5.796 65.38C4.938 65.38 4.308 65.767 3.906 66.541C3.504 67.315 3.303 68.44 3.303 69.916C3.303 71.296 3.54 72.346 4.014 73.066C4.494 73.786 5.163 74.146 6.021 74.146C6.609 74.146 7.161 74.02 7.677 73.768C8.193 73.516 8.685 73.204 9.153 72.832C9.399 73 9.636 73.234 9.864 73.534C10.092 73.828 10.236 74.116 10.296 74.398C9.786 74.902 9.114 75.337 8.28 75.703C7.446 76.069 6.549 76.252 5.589 76.252C4.683 76.252 3.921 76.072 3.303 75.712C2.685 75.352 2.19 74.869 1.818 74.263C1.446 73.651 1.176 72.97 1.008 72.22C0.846 71.464 0.765 70.693 0.765 69.907C0.765 68.401 0.996 67.174 1.458 66.226C1.926 65.272 2.547 64.57 3.321 64.12C4.095 63.67 4.944 63.445 5.868 63.445C6.78 63.445 7.569 63.61 8.235 63.94C8.907 64.27 9.426 64.711 9.792 65.263C10.164 65.815 10.35 66.421 10.35 67.081C10.35 67.975 9.891 68.422 8.973 68.422C8.799 68.422 8.637 68.41 8.487 68.386C8.343 68.362 8.19 68.329 8.028 68.287ZM19.7025 71.527C19.7025 72.469 19.5495 73.294 19.2435 74.002C18.9435 74.71 18.4935 75.262 17.8935 75.658C17.2935 76.054 16.5555 76.252 15.6795 76.252C14.7915 76.252 14.0475 76.054 13.4475 75.658C12.8535 75.256 12.4065 74.701 12.1065 73.993C11.8065 73.285 11.6565 72.463 11.6565 71.527C11.6565 70.591 11.8065 69.769 12.1065 69.061C12.4125 68.353 12.8625 67.801 13.4565 67.405C14.0565 67.009 14.7975 66.811 15.6795 66.811C16.5615 66.811 17.3025 67.009 17.9025 67.405C18.5025 67.801 18.9525 68.356 19.2525 69.07C19.5525 69.778 19.7025 70.597 19.7025 71.527ZM14.0685 71.527C14.0685 72.055 14.1105 72.544 14.1945 72.994C14.2845 73.438 14.4435 73.798 14.6715 74.074C14.9055 74.344 15.2415 74.479 15.6795 74.479C16.1175 74.479 16.4505 74.344 16.6785 74.074C16.9125 73.798 17.0715 73.438 17.1555 72.994C17.2455 72.544 17.2905 72.055 17.2905 71.527C17.2905 71.005 17.2455 70.522 17.1555 70.078C17.0715 69.628 16.9125 69.265 16.6785 68.989C16.4505 68.713 16.1175 68.575 15.6795 68.575C15.2415 68.575 14.9055 68.713 14.6715 68.989C14.4435 69.265 14.2845 69.628 14.1945 70.078C14.1105 70.522 14.0685 71.005 14.0685 71.527ZM29.1977 73.912C29.1977 74.248 29.2247 74.563 29.2787 74.857C29.3387 75.151 29.4377 75.409 29.5757 75.631C29.4017 75.775 29.1857 75.895 28.9277 75.991C28.6697 76.087 28.3937 76.135 28.0997 76.135C27.6317 76.135 27.3047 76.009 27.1187 75.757C26.9387 75.505 26.8487 75.139 26.8487 74.659V70.465C26.8487 69.967 26.7827 69.601 26.6507 69.367C26.5187 69.133 26.2697 69.016 25.9037 69.016C25.6457 69.016 25.3547 69.088 25.0307 69.232C24.7067 69.37 24.4067 69.583 24.1307 69.871V76C23.9627 76.03 23.7737 76.051 23.5637 76.063C23.3597 76.081 23.1557 76.09 22.9517 76.09C22.7537 76.09 22.5497 76.081 22.3397 76.063C22.1297 76.051 21.9407 76.03 21.7727 76V67.081L21.8897 66.964H22.7807C23.1467 66.964 23.4347 67.06 23.6447 67.252C23.8547 67.438 23.9957 67.699 24.0677 68.035C24.4397 67.711 24.8477 67.441 25.2917 67.225C25.7417 67.009 26.2247 66.901 26.7407 66.901C27.5747 66.901 28.1927 67.195 28.5947 67.783C28.9967 68.365 29.1977 69.097 29.1977 69.979V73.912ZM31.0134 75.361C31.0254 75.103 31.0974 74.818 31.2294 74.506C31.3674 74.188 31.5294 73.936 31.7154 73.75C32.1054 73.96 32.5134 74.143 32.9394 74.299C33.3654 74.449 33.7944 74.524 34.2264 74.524C34.6404 74.524 34.9614 74.443 35.1894 74.281C35.4234 74.119 35.5404 73.912 35.5404 73.66C35.5404 73.216 35.2194 72.877 34.5774 72.643L33.5604 72.274C32.9304 72.04 32.3934 71.719 31.9494 71.311C31.5054 70.897 31.2834 70.339 31.2834 69.637C31.2834 68.767 31.5924 68.08 32.2104 67.576C32.8344 67.066 33.6384 66.811 34.6224 66.811C35.1564 66.811 35.7174 66.883 36.3054 67.027C36.8934 67.165 37.3794 67.327 37.7634 67.513C37.7694 67.795 37.7064 68.107 37.5744 68.449C37.4484 68.785 37.2894 69.031 37.0974 69.187C36.7494 69.031 36.3594 68.887 35.9274 68.755C35.5014 68.617 35.0724 68.548 34.6404 68.548C34.3224 68.548 34.0734 68.626 33.8934 68.782C33.7134 68.932 33.6234 69.121 33.6234 69.349C33.6234 69.721 33.9234 70.015 34.5234 70.231L35.6304 70.636C36.3084 70.882 36.8694 71.23 37.3134 71.68C37.7574 72.124 37.9794 72.709 37.9794 73.435C37.9794 74.305 37.6434 74.992 36.9714 75.496C36.3054 76 35.4024 76.252 34.2624 76.252C33.6204 76.252 33.0204 76.165 32.4624 75.991C31.9044 75.811 31.4214 75.601 31.0134 75.361ZM40.2552 65.776C40.2552 65.254 40.3482 64.882 40.5342 64.66C40.7262 64.438 41.0592 64.327 41.5332 64.327H42.4422L42.5592 64.453V67.081L44.7372 67.045C44.8032 67.327 44.8362 67.606 44.8362 67.882C44.8362 68.194 44.8032 68.482 44.7372 68.746L42.5592 68.71V73.444C42.5592 73.702 42.6162 73.903 42.7302 74.047C42.8502 74.191 43.0512 74.263 43.3332 74.263H44.4492C44.5752 74.617 44.6382 74.998 44.6382 75.406C44.6382 75.496 44.6322 75.586 44.6202 75.676C44.6142 75.766 44.6022 75.85 44.5842 75.928C44.2722 75.97 43.9212 76.006 43.5312 76.036C43.1412 76.066 42.7662 76.081 42.4062 76.081C40.9722 76.081 40.2552 75.352 40.2552 73.894V68.719L38.8962 68.746C38.8242 68.482 38.7882 68.194 38.7882 67.882C38.7882 67.606 38.8242 67.327 38.8962 67.045L40.2552 67.072V65.776ZM45.6442 68.152C45.6922 67.942 45.7912 67.714 45.9412 67.468C46.0972 67.222 46.2562 67.042 46.4182 66.928C46.9222 66.994 47.3362 67.168 47.6602 67.45C47.9902 67.726 48.2392 68.089 48.4072 68.539C48.6112 68.077 48.8962 67.696 49.2622 67.396C49.6282 67.09 50.1082 66.937 50.7022 66.937C50.9182 66.937 51.1072 66.949 51.2692 66.973C51.4312 66.997 51.6022 67.027 51.7822 67.063C51.7822 67.357 51.7342 67.717 51.6382 68.143C51.5422 68.569 51.3952 68.947 51.1972 69.277C51.0592 69.229 50.9212 69.199 50.7832 69.187C50.6452 69.169 50.5072 69.154 50.3692 69.142C49.9672 69.142 49.6312 69.247 49.3612 69.457C49.0912 69.661 48.8602 69.928 48.6682 70.258V76C48.5062 76.03 48.3202 76.051 48.1102 76.063C47.9062 76.081 47.7022 76.09 47.4982 76.09C47.2942 76.09 47.0872 76.081 46.8772 76.063C46.6732 76.051 46.4872 76.03 46.3192 76V70.015C46.3192 69.511 46.2442 69.106 46.0942 68.8C45.9442 68.488 45.7942 68.272 45.6442 68.152ZM53.1738 69.142C53.1738 68.812 53.1468 68.5 53.0928 68.206C53.0388 67.912 52.9428 67.654 52.8048 67.432C52.9728 67.288 53.1858 67.168 53.4438 67.072C53.7078 66.976 53.9838 66.928 54.2718 66.928C54.7398 66.928 55.0668 67.054 55.2528 67.306C55.4388 67.558 55.5318 67.924 55.5318 68.404V72.598C55.5318 73.096 55.5948 73.462 55.7208 73.696C55.8528 73.93 56.1018 74.047 56.4678 74.047C56.7318 74.047 57.0228 73.978 57.3408 73.84C57.6648 73.696 57.9678 73.48 58.2498 73.192V67.063C58.4118 67.033 58.5948 67.012 58.7988 67C59.0088 66.982 59.2158 66.973 59.4198 66.973C59.6238 66.973 59.8278 66.982 60.0318 67C60.2418 67.012 60.4338 67.033 60.6078 67.063V73.453C60.6078 73.771 60.6468 74.065 60.7248 74.335C60.8088 74.605 60.9378 74.809 61.1118 74.947C61.0578 75.163 60.9528 75.388 60.7968 75.622C60.6468 75.85 60.4908 76.021 60.3288 76.135C59.8728 76.093 59.4918 75.958 59.1858 75.73C58.8858 75.496 58.6578 75.205 58.5018 74.857C58.1118 75.217 57.6768 75.526 57.1968 75.784C56.7168 76.036 56.1948 76.162 55.6308 76.162C54.8028 76.162 54.1848 75.871 53.7768 75.289C53.3748 74.701 53.1738 73.963 53.1738 73.075V69.142ZM67.8682 70.78C67.8802 70.144 67.8052 69.619 67.6432 69.205C67.4812 68.791 67.1212 68.584 66.5632 68.584C66.0712 68.584 65.7082 68.827 65.4742 69.313C65.2402 69.799 65.1232 70.552 65.1232 71.572C65.1232 72.586 65.2762 73.309 65.5822 73.741C65.8882 74.167 66.3322 74.38 66.9142 74.38C67.2922 74.38 67.6582 74.296 68.0122 74.128C68.3662 73.96 68.6902 73.768 68.9842 73.552C69.1822 73.666 69.3712 73.858 69.5512 74.128C69.7372 74.398 69.8572 74.653 69.9112 74.893C69.5092 75.307 69.0082 75.637 68.4082 75.883C67.8142 76.129 67.1902 76.252 66.5362 76.252C65.6782 76.252 64.9642 76.048 64.3942 75.64C63.8302 75.232 63.4072 74.677 63.1252 73.975C62.8492 73.267 62.7112 72.466 62.7112 71.572C62.7112 70.432 62.9002 69.514 63.2782 68.818C63.6622 68.116 64.1512 67.606 64.7452 67.288C65.3452 66.97 65.9662 66.811 66.6082 66.811C67.3102 66.811 67.9132 66.943 68.4172 67.207C68.9272 67.471 69.3172 67.822 69.5872 68.26C69.8632 68.692 70.0012 69.16 70.0012 69.664C70.0012 70.06 69.8962 70.36 69.6862 70.564C69.4822 70.768 69.1972 70.87 68.8312 70.87C68.6332 70.87 68.4592 70.864 68.3092 70.852C68.1652 70.834 68.0182 70.81 67.8682 70.78ZM76.4329 70.78C76.4449 70.144 76.3699 69.619 76.2079 69.205C76.0459 68.791 75.6859 68.584 75.1279 68.584C74.6359 68.584 74.2729 68.827 74.0389 69.313C73.8049 69.799 73.6879 70.552 73.6879 71.572C73.6879 72.586 73.8409 73.309 74.1469 73.741C74.4529 74.167 74.8969 74.38 75.4789 74.38C75.8569 74.38 76.2229 74.296 76.5769 74.128C76.9309 73.96 77.2549 73.768 77.5489 73.552C77.7469 73.666 77.9359 73.858 78.1159 74.128C78.3019 74.398 78.4219 74.653 78.4759 74.893C78.0739 75.307 77.5729 75.637 76.9729 75.883C76.3789 76.129 75.7549 76.252 75.1009 76.252C74.2429 76.252 73.5289 76.048 72.9589 75.64C72.3949 75.232 71.9719 74.677 71.6899 73.975C71.4139 73.267 71.2759 72.466 71.2759 71.572C71.2759 70.432 71.4649 69.514 71.8429 68.818C72.2269 68.116 72.7159 67.606 73.3099 67.288C73.9099 66.97 74.5309 66.811 75.1729 66.811C75.8749 66.811 76.4779 66.943 76.9819 67.207C77.4919 67.471 77.8819 67.822 78.1519 68.26C78.4279 68.692 78.5659 69.16 78.5659 69.664C78.5659 70.06 78.4609 70.36 78.2509 70.564C78.0469 70.768 77.7619 70.87 77.3959 70.87C77.1979 70.87 77.0239 70.864 76.8739 70.852C76.7299 70.834 76.5829 70.81 76.4329 70.78ZM83.3975 76C83.2355 76.03 83.0495 76.051 82.8395 76.063C82.6355 76.081 82.4315 76.09 82.2275 76.09C82.0235 76.09 81.8165 76.081 81.6065 76.063C81.4025 76.051 81.2165 76.03 81.0485 76V69.736C81.0485 69.424 80.9885 69.181 80.8685 69.007C80.7485 68.833 80.5325 68.746 80.2205 68.746H79.9955C79.9235 68.488 79.8875 68.218 79.8875 67.936C79.8875 67.804 79.8965 67.666 79.9145 67.522C79.9325 67.372 79.9595 67.225 79.9955 67.081C80.2415 67.051 80.4875 67.03 80.7335 67.018C80.9855 67.006 81.1955 67 81.3635 67H81.6785C82.2065 67 82.6235 67.171 82.9295 67.513C83.2415 67.849 83.3975 68.305 83.3975 68.881V76ZM80.4905 64.597C80.4905 64.261 80.5535 63.952 80.6795 63.67C80.9915 63.502 81.3815 63.418 81.8495 63.418C82.0535 63.418 82.2695 63.442 82.4975 63.49C82.7255 63.538 82.8995 63.598 83.0195 63.67C83.0795 63.802 83.1245 63.955 83.1545 64.129C83.1905 64.297 83.2085 64.453 83.2085 64.597C83.2085 64.933 83.1455 65.242 83.0195 65.524C82.9055 65.596 82.7315 65.656 82.4975 65.704C82.2695 65.752 82.0535 65.776 81.8495 65.776C81.6395 65.776 81.4205 65.755 81.1925 65.713C80.9705 65.665 80.7995 65.602 80.6795 65.524C80.5535 65.242 80.4905 64.933 80.4905 64.597ZM93.4983 71.527C93.4983 72.469 93.3453 73.294 93.0393 74.002C92.7393 74.71 92.2893 75.262 91.6893 75.658C91.0893 76.054 90.3513 76.252 89.4753 76.252C88.5873 76.252 87.8433 76.054 87.2433 75.658C86.6493 75.256 86.2023 74.701 85.9023 73.993C85.6023 73.285 85.4523 72.463 85.4523 71.527C85.4523 70.591 85.6023 69.769 85.9023 69.061C86.2083 68.353 86.6583 67.801 87.2523 67.405C87.8523 67.009 88.5933 66.811 89.4753 66.811C90.3573 66.811 91.0983 67.009 91.6983 67.405C92.2983 67.801 92.7483 68.356 93.0483 69.07C93.3483 69.778 93.4983 70.597 93.4983 71.527ZM87.8643 71.527C87.8643 72.055 87.9063 72.544 87.9903 72.994C88.0803 73.438 88.2393 73.798 88.4673 74.074C88.7013 74.344 89.0373 74.479 89.4753 74.479C89.9133 74.479 90.2463 74.344 90.4743 74.074C90.7083 73.798 90.8673 73.438 90.9513 72.994C91.0413 72.544 91.0863 72.055 91.0863 71.527C91.0863 71.005 91.0413 70.522 90.9513 70.078C90.8673 69.628 90.7083 69.265 90.4743 68.989C90.2463 68.713 89.9133 68.575 89.4753 68.575C89.0373 68.575 88.7013 68.713 88.4673 68.989C88.2393 69.265 88.0803 69.628 87.9903 70.078C87.9063 70.522 87.8643 71.005 87.8643 71.527ZM90.6453 62.41C90.9513 62.506 91.2543 62.692 91.5543 62.968C91.8543 63.238 92.0553 63.529 92.1573 63.841L88.9443 66.289C88.7463 66.235 88.5513 66.124 88.3593 65.956C88.1733 65.782 88.0383 65.587 87.9543 65.371L90.6453 62.41ZM102.993 73.912C102.993 74.248 103.02 74.563 103.074 74.857C103.134 75.151 103.233 75.409 103.371 75.631C103.197 75.775 102.981 75.895 102.723 75.991C102.465 76.087 102.189 76.135 101.895 76.135C101.427 76.135 101.1 76.009 100.914 75.757C100.734 75.505 100.644 75.139 100.644 74.659V70.465C100.644 69.967 100.578 69.601 100.446 69.367C100.314 69.133 100.065 69.016 99.6995 69.016C99.4415 69.016 99.1505 69.088 98.8265 69.232C98.5025 69.37 98.2025 69.583 97.9265 69.871V76C97.7585 76.03 97.5695 76.051 97.3595 76.063C97.1555 76.081 96.9515 76.09 96.7475 76.09C96.5495 76.09 96.3455 76.081 96.1355 76.063C95.9255 76.051 95.7365 76.03 95.5685 76V67.081L95.6855 66.964H96.5765C96.9425 66.964 97.2305 67.06 97.4405 67.252C97.6505 67.438 97.7915 67.699 97.8635 68.035C98.2355 67.711 98.6435 67.441 99.0875 67.225C99.5375 67.009 100.02 66.901 100.536 66.901C101.37 66.901 101.988 67.195 102.39 67.783C102.792 68.365 102.993 69.097 102.993 69.979V73.912ZM108.944 75.361C108.956 75.103 109.028 74.818 109.16 74.506C109.298 74.188 109.46 73.936 109.646 73.75C110.036 73.96 110.444 74.143 110.87 74.299C111.296 74.449 111.725 74.524 112.157 74.524C112.571 74.524 112.892 74.443 113.12 74.281C113.354 74.119 113.471 73.912 113.471 73.66C113.471 73.216 113.15 72.877 112.508 72.643L111.491 72.274C110.861 72.04 110.324 71.719 109.88 71.311C109.436 70.897 109.214 70.339 109.214 69.637C109.214 68.767 109.523 68.08 110.141 67.576C110.765 67.066 111.569 66.811 112.553 66.811C113.087 66.811 113.648 66.883 114.236 67.027C114.824 67.165 115.31 67.327 115.694 67.513C115.7 67.795 115.637 68.107 115.505 68.449C115.379 68.785 115.22 69.031 115.028 69.187C114.68 69.031 114.29 68.887 113.858 68.755C113.432 68.617 113.003 68.548 112.571 68.548C112.253 68.548 112.004 68.626 111.824 68.782C111.644 68.932 111.554 69.121 111.554 69.349C111.554 69.721 111.854 70.015 112.454 70.231L113.561 70.636C114.239 70.882 114.8 71.23 115.244 71.68C115.688 72.124 115.91 72.709 115.91 73.435C115.91 74.305 115.574 74.992 114.902 75.496C114.236 76 113.333 76.252 112.193 76.252C111.551 76.252 110.951 76.165 110.393 75.991C109.835 75.811 109.352 75.601 108.944 75.361ZM117.772 69.142C117.772 68.812 117.745 68.5 117.691 68.206C117.637 67.912 117.541 67.654 117.403 67.432C117.571 67.288 117.784 67.168 118.042 67.072C118.306 66.976 118.582 66.928 118.87 66.928C119.338 66.928 119.665 67.054 119.851 67.306C120.037 67.558 120.13 67.924 120.13 68.404V72.598C120.13 73.096 120.193 73.462 120.319 73.696C120.451 73.93 120.7 74.047 121.066 74.047C121.33 74.047 121.621 73.978 121.939 73.84C122.263 73.696 122.566 73.48 122.848 73.192V67.063C123.01 67.033 123.193 67.012 123.397 67C123.607 66.982 123.814 66.973 124.018 66.973C124.222 66.973 124.426 66.982 124.63 67C124.84 67.012 125.032 67.033 125.206 67.063V73.453C125.206 73.771 125.245 74.065 125.323 74.335C125.407 74.605 125.536 74.809 125.71 74.947C125.656 75.163 125.551 75.388 125.395 75.622C125.245 75.85 125.089 76.021 124.927 76.135C124.471 76.093 124.09 75.958 123.784 75.73C123.484 75.496 123.256 75.205 123.1 74.857C122.71 75.217 122.275 75.526 121.795 75.784C121.315 76.036 120.793 76.162 120.229 76.162C119.401 76.162 118.783 75.871 118.375 75.289C117.973 74.701 117.772 73.963 117.772 73.075V69.142ZM127.093 75.361C127.105 75.103 127.177 74.818 127.309 74.506C127.447 74.188 127.609 73.936 127.795 73.75C128.185 73.96 128.593 74.143 129.019 74.299C129.445 74.449 129.874 74.524 130.306 74.524C130.72 74.524 131.041 74.443 131.269 74.281C131.503 74.119 131.62 73.912 131.62 73.66C131.62 73.216 131.299 72.877 130.657 72.643L129.64 72.274C129.01 72.04 128.473 71.719 128.029 71.311C127.585 70.897 127.363 70.339 127.363 69.637C127.363 68.767 127.672 68.08 128.29 67.576C128.914 67.066 129.718 66.811 130.702 66.811C131.236 66.811 131.797 66.883 132.385 67.027C132.973 67.165 133.459 67.327 133.843 67.513C133.849 67.795 133.786 68.107 133.654 68.449C133.528 68.785 133.369 69.031 133.177 69.187C132.829 69.031 132.439 68.887 132.007 68.755C131.581 68.617 131.152 68.548 130.72 68.548C130.402 68.548 130.153 68.626 129.973 68.782C129.793 68.932 129.703 69.121 129.703 69.349C129.703 69.721 130.003 70.015 130.603 70.231L131.71 70.636C132.388 70.882 132.949 71.23 133.393 71.68C133.837 72.124 134.059 72.709 134.059 73.435C134.059 74.305 133.723 74.992 133.051 75.496C132.385 76 131.482 76.252 130.342 76.252C129.7 76.252 129.1 76.165 128.542 75.991C127.984 75.811 127.501 75.601 127.093 75.361ZM136.335 65.776C136.335 65.254 136.428 64.882 136.614 64.66C136.806 64.438 137.139 64.327 137.613 64.327H138.522L138.639 64.453V67.081L140.817 67.045C140.883 67.327 140.916 67.606 140.916 67.882C140.916 68.194 140.883 68.482 140.817 68.746L138.639 68.71V73.444C138.639 73.702 138.696 73.903 138.81 74.047C138.93 74.191 139.131 74.263 139.413 74.263H140.529C140.655 74.617 140.718 74.998 140.718 75.406C140.718 75.496 140.712 75.586 140.7 75.676C140.694 75.766 140.682 75.85 140.664 75.928C140.352 75.97 140.001 76.006 139.611 76.036C139.221 76.066 138.846 76.081 138.486 76.081C137.052 76.081 136.335 75.352 136.335 73.894V68.719L134.976 68.746C134.904 68.482 134.868 68.194 134.868 67.882C134.868 67.606 134.904 67.327 134.976 67.045L136.335 67.072V65.776ZM149.313 75.235C148.869 75.547 148.338 75.796 147.72 75.982C147.108 76.162 146.487 76.252 145.857 76.252C145.107 76.252 144.48 76.123 143.976 75.865C143.478 75.607 143.082 75.259 142.788 74.821C142.5 74.377 142.296 73.876 142.176 73.318C142.056 72.754 141.996 72.172 141.996 71.572C141.996 70.672 142.134 69.865 142.41 69.151C142.686 68.431 143.109 67.861 143.679 67.441C144.255 67.021 144.993 66.811 145.893 66.811C146.673 66.811 147.336 66.982 147.882 67.324C148.428 67.66 148.842 68.119 149.124 68.701C149.412 69.277 149.556 69.922 149.556 70.636C149.556 70.984 149.541 71.278 149.511 71.518C149.481 71.752 149.433 72.007 149.367 72.283H144.39C144.432 72.889 144.579 73.396 144.831 73.804C145.083 74.206 145.551 74.407 146.235 74.407C146.661 74.407 147.075 74.35 147.477 74.236C147.885 74.116 148.275 73.969 148.647 73.795C148.827 73.975 148.974 74.203 149.088 74.479C149.202 74.749 149.277 75.001 149.313 75.235ZM145.875 68.512C145.401 68.512 145.044 68.695 144.804 69.061C144.564 69.421 144.426 69.946 144.39 70.636H147.351V70.42C147.351 69.898 147.237 69.451 147.009 69.079C146.787 68.701 146.409 68.512 145.875 68.512ZM159.132 73.912C159.132 74.248 159.159 74.563 159.213 74.857C159.273 75.151 159.372 75.409 159.51 75.631C159.336 75.775 159.12 75.895 158.862 75.991C158.604 76.087 158.328 76.135 158.034 76.135C157.566 76.135 157.239 76.009 157.053 75.757C156.873 75.505 156.783 75.139 156.783 74.659V70.465C156.783 69.967 156.717 69.601 156.585 69.367C156.453 69.133 156.204 69.016 155.838 69.016C155.58 69.016 155.289 69.088 154.965 69.232C154.641 69.37 154.341 69.583 154.065 69.871V76C153.897 76.03 153.708 76.051 153.498 76.063C153.294 76.081 153.09 76.09 152.886 76.09C152.688 76.09 152.484 76.081 152.274 76.063C152.064 76.051 151.875 76.03 151.707 76V67.081L151.824 66.964H152.715C153.081 66.964 153.369 67.06 153.579 67.252C153.789 67.438 153.93 67.699 154.002 68.035C154.374 67.711 154.782 67.441 155.226 67.225C155.676 67.009 156.159 66.901 156.675 66.901C157.509 66.901 158.127 67.195 158.529 67.783C158.931 68.365 159.132 69.097 159.132 69.979V73.912ZM162.082 65.776C162.082 65.254 162.175 64.882 162.361 64.66C162.553 64.438 162.886 64.327 163.36 64.327H164.269L164.386 64.453V67.081L166.564 67.045C166.63 67.327 166.663 67.606 166.663 67.882C166.663 68.194 166.63 68.482 166.564 68.746L164.386 68.71V73.444C164.386 73.702 164.443 73.903 164.557 74.047C164.677 74.191 164.878 74.263 165.16 74.263H166.276C166.402 74.617 166.465 74.998 166.465 75.406C166.465 75.496 166.459 75.586 166.447 75.676C166.441 75.766 166.429 75.85 166.411 75.928C166.099 75.97 165.748 76.006 165.358 76.036C164.968 76.066 164.593 76.081 164.233 76.081C162.799 76.081 162.082 75.352 162.082 73.894V68.719L160.723 68.746C160.651 68.482 160.615 68.194 160.615 67.882C160.615 67.606 160.651 67.327 160.723 67.045L162.082 67.072V65.776ZM167.47 73.561C167.47 72.859 167.629 72.283 167.947 71.833C168.271 71.377 168.697 71.041 169.225 70.825C169.759 70.609 170.341 70.501 170.971 70.501C171.181 70.501 171.418 70.507 171.682 70.519C171.946 70.525 172.21 70.543 172.474 70.573V70.069C172.474 69.163 172.036 68.71 171.16 68.71C170.74 68.71 170.296 68.776 169.828 68.908C169.36 69.034 168.889 69.178 168.415 69.34C168.241 69.148 168.1 68.896 167.992 68.584C167.89 68.266 167.827 67.96 167.803 67.666C168.175 67.516 168.589 67.381 169.045 67.261C169.507 67.135 169.972 67.036 170.44 66.964C170.908 66.892 171.343 66.856 171.745 66.856C172.297 66.856 172.807 66.961 173.275 67.171C173.743 67.375 174.115 67.702 174.391 68.152C174.673 68.596 174.814 69.181 174.814 69.907V73.579C174.814 73.879 174.85 74.143 174.922 74.371C175 74.593 175.132 74.779 175.318 74.929C175.27 75.139 175.168 75.364 175.012 75.604C174.862 75.844 174.706 76.021 174.544 76.135C174.124 76.099 173.773 75.985 173.491 75.793C173.215 75.601 172.999 75.373 172.843 75.109C172.519 75.409 172.138 75.676 171.7 75.91C171.262 76.138 170.752 76.252 170.17 76.252C169.558 76.252 169.051 76.117 168.649 75.847C168.253 75.577 167.956 75.235 167.758 74.821C167.566 74.407 167.47 73.987 167.47 73.561ZM169.774 73.399C169.774 73.705 169.864 73.96 170.044 74.164C170.224 74.368 170.473 74.47 170.791 74.47C171.379 74.47 171.94 74.206 172.474 73.678V72.103C172.252 72.079 172.027 72.067 171.799 72.067C171.571 72.061 171.367 72.058 171.187 72.058C170.719 72.058 170.365 72.181 170.125 72.427C169.891 72.667 169.774 72.991 169.774 73.399ZM185.079 71.41C185.085 72.424 184.902 73.285 184.53 73.993C184.164 74.695 183.66 75.232 183.018 75.604C182.376 75.97 181.641 76.153 180.813 76.153C180.189 76.153 179.586 76.099 179.004 75.991C178.428 75.883 177.894 75.736 177.402 75.55V62.878L177.519 62.761H178.41C178.884 62.761 179.217 62.872 179.409 63.094C179.607 63.31 179.706 63.682 179.706 64.21V67.648C179.994 67.432 180.321 67.252 180.687 67.108C181.059 66.964 181.473 66.892 181.929 66.892C182.625 66.892 183.207 67.087 183.675 67.477C184.143 67.867 184.494 68.404 184.728 69.088C184.962 69.766 185.079 70.54 185.079 71.41ZM181.281 68.809C181.017 68.809 180.744 68.875 180.462 69.007C180.186 69.139 179.934 69.334 179.706 69.592V74.299C180.06 74.395 180.438 74.443 180.84 74.443C181.422 74.443 181.872 74.185 182.19 73.669C182.514 73.147 182.676 72.406 182.676 71.446C182.676 70.522 182.55 69.853 182.298 69.439C182.046 69.025 181.707 68.815 181.281 68.809ZM190.744 74.263C190.87 74.617 190.933 74.998 190.933 75.406C190.933 75.496 190.93 75.586 190.924 75.676C190.918 75.766 190.903 75.85 190.879 75.928C190.639 75.97 190.363 76.006 190.051 76.036C189.739 76.066 189.433 76.081 189.133 76.081C188.431 76.081 187.918 75.904 187.594 75.55C187.276 75.19 187.117 74.638 187.117 73.894V62.878L187.243 62.761H188.143C188.623 62.761 188.956 62.872 189.142 63.094C189.328 63.31 189.421 63.682 189.421 64.21V73.444C189.421 73.99 189.67 74.263 190.168 74.263H190.744ZM199.365 75.235C198.921 75.547 198.39 75.796 197.772 75.982C197.16 76.162 196.539 76.252 195.909 76.252C195.159 76.252 194.532 76.123 194.028 75.865C193.53 75.607 193.134 75.259 192.84 74.821C192.552 74.377 192.348 73.876 192.228 73.318C192.108 72.754 192.048 72.172 192.048 71.572C192.048 70.672 192.186 69.865 192.462 69.151C192.738 68.431 193.161 67.861 193.731 67.441C194.307 67.021 195.045 66.811 195.945 66.811C196.725 66.811 197.388 66.982 197.934 67.324C198.48 67.66 198.894 68.119 199.176 68.701C199.464 69.277 199.608 69.922 199.608 70.636C199.608 70.984 199.593 71.278 199.563 71.518C199.533 71.752 199.485 72.007 199.419 72.283H194.442C194.484 72.889 194.631 73.396 194.883 73.804C195.135 74.206 195.603 74.407 196.287 74.407C196.713 74.407 197.127 74.35 197.529 74.236C197.937 74.116 198.327 73.969 198.699 73.795C198.879 73.975 199.026 74.203 199.14 74.479C199.254 74.749 199.329 75.001 199.365 75.235ZM195.927 68.512C195.453 68.512 195.096 68.695 194.856 69.061C194.616 69.421 194.478 69.946 194.442 70.636H197.403V70.42C197.403 69.898 197.289 69.451 197.061 69.079C196.839 68.701 196.461 68.512 195.927 68.512Z" fill="#FDFDFD"/>
</svg>
